<svg xmlns="http://www.w3.org/2000/svg" width="163.267" height="31.309" viewBox="0 0 163.267 31.309"><defs><style>.a{fill:#2f2f2f;}.b{fill:#302f2f;}.c{fill:#303030;}.d{fill:#0a6b86;}.e{fill:#313131;}.f{fill:#323232;}</style></defs><g transform="translate(-88 -34.924)"><g transform="translate(-2155.264 692.202)"><path class="a" d="M2263.794-641.431a37.915,37.915,0,0,1-.164,4.672c-.8,4.437-4.215,6.448-8.408,6.225-5.481-.292-7.741-4.273-7.426-9.1a2.147,2.147,0,0,1,2.145-1.977,2.173,2.173,0,0,1,2.14,2c.061.615-.008,1.243.055,1.858a3.432,3.432,0,0,0,3.725,3.349,3.4,3.4,0,0,0,3.58-3.5c.075-2.515.062-5.036-.015-7.551a3.279,3.279,0,0,0-2.184-3.2,1.934,1.934,0,0,1-1.343-2.523,2.054,2.054,0,0,1,2.715-1.2,7.06,7.06,0,0,1,5.175,6.941C2263.82-644.2,2263.794-642.954,2263.794-641.431Z" transform="translate(-2.632 -2.795)"/><path class="b" d="M2369.719-630.205c0-1.9-.005-3.793,0-5.689a2.106,2.106,0,0,1,3.285-1.941,1.683,1.683,0,0,0,1.594.085,5.953,5.953,0,0,1,7.026,1.977,6.357,6.357,0,0,1,.927,3.446c.028,2.655.017,5.31.006,7.965a1.909,1.909,0,0,1-2.12,2.1,1.9,1.9,0,0,1-2.151-2.071c-.018-2.551-.009-5.1,0-7.655a2.35,2.35,0,0,0-1.088-2.4,3.372,3.372,0,0,0-2.887.243c-.5.2-.309.644-.312.988-.015,2.793-.008,5.586-.009,8.379,0,1.793-.6,2.507-2.112,2.515-1.533.008-2.159-.705-2.159-2.463Q2369.718-627.464,2369.719-630.205Z" transform="translate(-73.89 -11.153)"/><path class="b" d="M2523.351-640.734q2.685-2.421,5.368-4.843a5.673,5.673,0,0,0,.506-.519c.457-.533,1.016-.839,1.582-.275.523.52.233,1.059-.232,1.527-1.242,1.249-2.426,2.56-3.718,3.753-.685.632-.627,1.067-.129,1.772,1.55,2.2,3.029,4.444,4.525,6.677.323.483.785,1.044.065,1.512-.691.449-1.2.086-1.616-.556-1.441-2.229-2.929-4.427-4.359-6.663-.36-.562-.556-.594-1.038-.11a2.441,2.441,0,0,0-.834,1.989c.07,1.376.014,2.759.021,4.139,0,.726-.149,1.363-1.034,1.354-.828-.008-.966-.6-.965-1.3q.011-9.885,0-19.769c0-.681.111-1.3.935-1.336.881-.034,1.062.6,1.062,1.329q0,5.226,0,10.453v1.131Z" transform="translate(-162.577 -2.278)"/><path class="c" d="M2571.12-629.38c0-2.139-.005-4.279,0-6.418,0-.581-.057-1.212.722-1.412a.937.937,0,0,1,1.261.718c.151.462.387.077.546.01a10.111,10.111,0,0,1,2.677-.734,4.442,4.442,0,0,1,5.3,3.847,26.489,26.489,0,0,1,.17,4.542c.022,2,0,4,.008,6,0,.692-.148,1.264-1,1.258s-1.012-.564-1.011-1.26q.005-4.347,0-8.695c0-.242.009-.483-.005-.724-.157-2.647-1.949-3.888-4.492-3.107-.262.081-.51.206-.77.3a1.96,1.96,0,0,0-1.468,2.224c.116,3.308.036,6.623.043,9.936,0,.539-.011,1.062-.616,1.289-.759.286-1.36-.2-1.369-1.153C2571.106-624.964,2571.12-627.172,2571.12-629.38Z" transform="translate(-191.572 -11.693)"/><path class="a" d="M2486.451-628.046c0,1.759-.008,3.518,0,5.277.005.71-.169,1.25-1.02,1.217-.781-.03-.931-.543-.929-1.209q.015-6.622,0-13.244c0-.55.046-1.038.711-1.193a.877.877,0,0,1,1.2.633c.147.508.415.183.626.1a9.349,9.349,0,0,1,2.469-.706c3.189-.377,5.359,1.163,5.538,4.347.194,3.438.073,6.895.08,10.343a.844.844,0,0,1-.98.934c-.7-.019-.948-.433-.947-1.088.007-2.932,0-5.863,0-8.795,0-.207.012-.414,0-.621-.133-2.854-2.059-4.151-4.757-3.206-1.877.658-2.006.836-2.006,2.765Z" transform="translate(-140.963 -11.705)"/><path class="d" d="M2249.119-657.277a2.05,2.05,0,0,1,2.1,1.471,1.833,1.833,0,0,1-1.1,2.29c-1.971.7-2.52,2.185-2.5,4.062,0,.38.025.761-.007,1.137a2.077,2.077,0,0,1-2.24,1.966,2.032,2.032,0,0,1-2.083-2.1,9.939,9.939,0,0,1,1.162-5.687A6.546,6.546,0,0,1,2249.119-657.277Z"/><path class="e" d="M2555.675-629.347c0,2.173-.01,4.345.006,6.518.005.715-.19,1.265-1,1.275-.833.01-.99-.59-.99-1.277q0-6.569,0-13.139c0-.692.188-1.308.992-1.29.758.017,1,.568,1,1.293C2555.662-633.761,2555.675-631.553,2555.675-629.347Z" transform="translate(-181.392 -11.696)"/><path class="f" d="M2555.566-651.445a1.186,1.186,0,0,1-1.294,1.173,1.142,1.142,0,0,1-1.208-1.262,1.162,1.162,0,0,1,1.285-1.2A1.2,1.2,0,0,1,2555.566-651.445Z" transform="translate(-181.023 -2.654)"/><path class="a" d="M2307.453-632.22c-.029-4.75-3.618-7.2-8.093-5.563a1.244,1.244,0,0,1-1.3-.112,2.092,2.092,0,0,0-3.377,1.839q-.018,9,0,18.01a1.913,1.913,0,0,0,2.162,2.066,1.9,1.9,0,0,0,2.047-2.073c.011-1.551,0-3.1,0-4.849a7.53,7.53,0,0,0,3.659.525,4.853,4.853,0,0,0,4.639-3.864A24.821,24.821,0,0,0,2307.453-632.22Zm-4.24,4.187a2.6,2.6,0,0,1-4.1,1.884c-.309-.2-.2-.486-.206-.739-.014-1.1-.006-2.207-.006-3.31,0-1.07.033-2.14-.014-3.207a.806.806,0,0,1,.688-.956,9.41,9.41,0,0,1,1.306-.285,1.878,1.878,0,0,1,2.337,1.958C2303.281-631.138,2303.294-629.58,2303.214-628.033Z" transform="translate(-30.043 -11.074)"/><path class="a" d="M2337.132-628.462a11.48,11.48,0,0,0,3.916-.093,4.108,4.108,0,0,0,3.656-3.649c.313-2.418-.6-4.4-2.523-5.3a8.362,8.362,0,0,0-6.544-.188,4.883,4.883,0,0,0-3.449,4.978c-.007.828,0,1.655,0,2.483,0,.931-.022,1.863.006,2.793a4.719,4.719,0,0,0,2.873,4.426,9.851,9.851,0,0,0,7.56.06c1.529-.528,2.149-1.531,1.77-2.583s-1.6-1.365-3.115-.758a6.19,6.19,0,0,1-3.241.417,1.757,1.757,0,0,1-1.651-1.887C2336.377-628.32,2336.466-628.555,2337.132-628.462Zm-.611-5.146a2.237,2.237,0,0,1,2.827-1.253,1.575,1.575,0,0,1,1.187,1.976c-.135,1.061-.841,1.451-2.484,1.372l-.207-.011C2336.339-631.616,2336-632.155,2336.521-633.608Z" transform="translate(-51.956 -11.111)"/><path class="a" d="M2422-636.409a4.541,4.541,0,0,0-3.092-4.133c-.368-.162-.735-.329-1.226-.55.374-.224.625-.376.877-.526,2.316-1.369,3.289-3.381,2.756-5.7a5.258,5.258,0,0,0-5.165-4.135c-1.864-.072-3.733-.059-5.6-.042-1.037.009-1.453.434-1.455,1.447q-.014,9.263,0,18.527c0,1.009.431,1.424,1.462,1.431q2.7.019,5.393-.012a6.439,6.439,0,0,0,3.341-.971A5.553,5.553,0,0,0,2422-636.409Zm-10.926-9.512c0-.964.026-1.93-.01-2.892-.021-.556.112-.8.733-.774,1.275.049,2.554,0,3.83.025,2.265.051,3.642,1.2,3.8,3.138a3.889,3.889,0,0,1-3.328,4.085,31.456,31.456,0,0,1-4.444.146c-.468.01-.589-.207-.583-.628C2411.08-643.854,2411.07-644.887,2411.07-645.92Zm8.889,10.13c-.084,2.055-1.36,3.342-3.627,3.67a45.2,45.2,0,0,1-4.656.131c-.55.023-.616-.26-.612-.7.014-1.171,0-2.343,0-3.515q0-1.706,0-3.412c0-.309-.043-.648.445-.629a29.485,29.485,0,0,1,5.06.188A3.937,3.937,0,0,1,2419.959-635.79Z" transform="translate(-96.894 -3.371)"/><path class="b" d="M2617.385-638.9a.922.922,0,0,0-1.091-.37,2.749,2.749,0,0,0-1.624,1.211c-.339.52-.589.531-1.136.283a7.527,7.527,0,0,0-5.739-.437c-3.294,1.158-4.312,6.066-1.874,8.988.384.461.423.671.015,1.143a2.765,2.765,0,0,0-.361,3.6c.5.7.328,1.043-.15,1.62a4.183,4.183,0,0,0,1.214,6.519,7.868,7.868,0,0,0,7.462-.153,4.127,4.127,0,0,0,2.259-4.214,3.821,3.821,0,0,0-2.988-3.436,14.916,14.916,0,0,0-4.3-.468c-1.767-.044-2.461-1.176-1.744-2.8.157-.354.3-.558.76-.376a6.024,6.024,0,0,0,2.142.322,12.228,12.228,0,0,0,1.439-.15,4.827,4.827,0,0,0,3.915-5.114c-.011-1.916-.152-3.823,1.675-5.136A.749.749,0,0,0,2617.385-638.9ZM2607.3-622.664c.152-.136.291-.319.527-.271,1.463.3,2.969,0,4.431.322,1.339.3,1.983.887,2.1,1.937a2.677,2.677,0,0,1-1.64,2.921,6.209,6.209,0,0,1-2.553.443,6.745,6.745,0,0,1-2-.308A3.057,3.057,0,0,1,2607.3-622.664Zm2.172-6.624c-2.707-.342-3.337-3.183-2.652-5.279.66-2.019,2.413-2.709,5.024-2.093,1.728.407,1.839.579,1.84,2.833,0,.275,0,.551,0,.826C2613.7-630.281,2612.125-628.952,2609.47-629.288Z" transform="translate(-211.003 -10.497)"/><path class="b" d="M2458.463-623.67c-1.2,0-1.172-.811-1.18-1.63-.023-2.585.064-5.176-.095-7.752a5.526,5.526,0,0,0-8.634-4.115c-.531.344-.917.793-.549,1.461s.912.369,1.342.112a4.993,4.993,0,0,1,3.206-.543,2.731,2.731,0,0,1,2.633,2.352,15.965,15.965,0,0,1,.117,3.305,11.762,11.762,0,0,0-4.453-.493c-2.894.217-4.338,1.883-4.241,4.885.08,2.491,1.818,4.024,4.535,4.066a5.866,5.866,0,0,0,3.831-1.315c.478-.378.653-.308,1,.142a2.08,2.08,0,0,0,2.5.952.727.727,0,0,0,.545-.67C2459.037-623.3,2458.828-623.67,2458.463-623.67Zm-4.571-.552a4.575,4.575,0,0,1-4.364-.041c-1.084-.685-1.094-1.915-.89-3.086a2.264,2.264,0,0,1,1.991-1.954,9.3,9.3,0,0,1,2.581-.016c2.086.19,2.1.213,2.1,2.555A2.027,2.027,0,0,1,2453.892-624.222Z" transform="translate(-118.817 -11.201)"/></g></g></svg>