<svg width="237" height="71" viewBox="0 0 237 71" fill="none" xmlns="http://www.w3.org/2000/svg">
<path d="M46.605 64.659L34.519 70.325V5.665L46.605 0V64.659Z" fill="white"/>
<path d="M11.479 45.5477C11.479 37.3947 20.467 30.5297 32.706 28.4477V21.2367C14.069 23.4557 0 33.4947 0 45.5477C0 57.9907 14.99 68.2897 34.519 70.0557V62.9217C21.362 61.2387 11.479 54.1007 11.479 45.5477Z" fill="white"/>
<path d="M75.915 40.9432L74.328 24.3982L68.631 27.7472C63.152 24.5042 56.189 22.1952 48.418 21.2522V28.4752C52.943 29.2592 57.011 30.7022 60.343 32.6222L54.159 36.2572L75.915 40.9432Z" fill="white"/>
<path d="M92.5728 47.1005C92.9918 48.6755 93.6508 50.0925 94.5508 51.3515C95.4488 52.6105 96.6048 53.6215 98.0128 54.3865C99.4218 55.1505 101.101 55.5335 103.05 55.5335C104.998 55.5335 106.677 55.1505 108.085 54.3865C109.495 53.6215 110.648 52.6105 111.547 51.3515C112.448 50.0925 113.106 48.6755 113.526 47.1005C113.947 45.5285 114.156 43.9315 114.156 42.3135C114.156 40.6945 113.947 39.0965 113.526 37.5245C113.106 35.9515 112.448 34.5365 111.547 33.2755C110.648 32.0165 109.495 31.0035 108.085 30.2385C106.677 29.4745 104.998 29.0925 103.05 29.0925C101.101 29.0925 99.4218 29.4745 98.0128 30.2385C96.6048 31.0035 95.4488 32.0165 94.5508 33.2755C93.6508 34.5365 92.9918 35.9515 92.5728 37.5245C92.1518 39.0965 91.9428 40.6945 91.9428 42.3135C91.9428 43.9315 92.1518 45.5285 92.5728 47.1005ZM88.6368 35.9965C89.2818 33.9735 90.2488 32.1795 91.5378 30.6225C92.8258 29.0645 94.4308 27.8215 96.3488 26.8905C98.2678 25.9615 100.502 25.4955 103.05 25.4955C105.597 25.4955 107.831 25.9615 109.75 26.8905C111.669 27.8215 113.271 29.0645 114.561 30.6225C115.849 32.1795 116.817 33.9735 117.461 35.9965C118.106 38.0195 118.427 40.1255 118.427 42.3135C118.427 44.5035 118.106 46.6065 117.461 48.6315C116.817 50.6535 115.849 52.4465 114.561 54.0035C113.271 55.5635 111.669 56.7995 109.75 57.7135C107.831 58.6285 105.597 59.0855 103.05 59.0855C100.502 59.0855 98.2678 58.6285 96.3488 57.7135C94.4308 56.7995 92.8258 55.5635 91.5378 54.0035C90.2488 52.4465 89.2818 50.6535 88.6368 48.6315C87.9928 46.6065 87.6718 44.5035 87.6718 42.3135C87.6718 40.1255 87.9928 38.0195 88.6368 35.9965Z" fill="white"/>
<path d="M139.359 43.37C139.073 42.336 138.639 41.415 138.054 40.603C137.471 39.794 136.72 39.151 135.806 38.672C134.891 38.193 133.82 37.95 132.592 37.95C131.301 37.95 130.207 38.206 129.309 38.718C128.411 39.227 127.674 39.892 127.105 40.717C126.536 41.541 126.124 42.478 125.869 43.527C125.614 44.578 125.486 45.641 125.486 46.72C125.486 47.861 125.621 48.962 125.891 50.024C126.161 51.091 126.588 52.025 127.174 52.836C127.758 53.643 128.514 54.297 129.444 54.792C130.373 55.286 131.497 55.533 132.817 55.533C134.135 55.533 135.236 55.279 136.12 54.768C137.005 54.259 137.717 53.587 138.258 52.745C138.797 51.906 139.185 50.947 139.426 49.867C139.666 48.787 139.786 47.679 139.786 46.539C139.786 45.46 139.644 44.404 139.359 43.37ZM125.621 35.119V38.266H125.712C126.341 36.979 127.33 36.041 128.678 35.457C130.028 34.871 131.512 34.579 133.13 34.579C134.928 34.579 136.495 34.907 137.829 35.567C139.163 36.228 140.273 37.121 141.156 38.243C142.041 39.369 142.709 40.664 143.158 42.133C143.608 43.601 143.833 45.161 143.833 46.81C143.833 48.458 143.616 50.017 143.18 51.485C142.747 52.956 142.087 54.236 141.202 55.332C140.318 56.424 139.208 57.287 137.874 57.917C136.54 58.545 134.99 58.86 133.222 58.86C132.651 58.86 132.015 58.8 131.309 58.682C130.605 58.561 129.906 58.367 129.219 58.096C128.527 57.824 127.878 57.46 127.262 56.994C126.648 56.531 126.131 55.954 125.712 55.265H125.621V67.224H121.799V35.119H125.621Z" fill="white"/>
<path d="M162.515 41.9549C162.171 41.1429 161.706 40.4469 161.122 39.8639C160.536 39.2789 159.847 38.8149 159.053 38.4719C158.258 38.1249 157.381 37.9499 156.422 37.9499C155.433 37.9499 154.541 38.1249 153.746 38.4719C152.952 38.8149 152.271 39.2849 151.701 39.8869C151.131 40.4849 150.681 41.1829 150.352 41.9769C150.022 42.7689 149.827 43.6159 149.767 44.5169H163.121C163.062 43.6159 162.86 42.7619 162.515 41.9549ZM163.436 56.8819C161.698 58.2029 159.51 58.8599 156.872 58.8599C155.012 58.8599 153.401 58.5609 152.038 57.9599C150.673 57.3609 149.527 56.5209 148.598 55.4439C147.669 54.3609 146.972 53.0759 146.508 51.5759C146.043 50.0769 145.78 48.4419 145.721 46.6759C145.721 44.9059 145.99 43.2879 146.53 41.8179C147.07 40.3499 147.826 39.0749 148.8 37.9969C149.773 36.9159 150.928 36.0799 152.263 35.4769C153.596 34.8809 155.058 34.5789 156.647 34.5789C158.716 34.5789 160.432 35.0079 161.796 35.8609C163.159 36.7129 164.255 37.8039 165.078 39.1199C165.902 40.4399 166.471 41.8789 166.786 43.4379C167.101 44.9969 167.229 46.4799 167.169 47.8889H149.767C149.737 48.9089 149.857 49.8749 150.127 50.7879C150.398 51.7049 150.831 52.5129 151.432 53.2189C152.031 53.9219 152.796 54.4829 153.725 54.9029C154.654 55.3249 155.747 55.5329 157.007 55.5329C158.625 55.5329 159.952 55.1579 160.985 54.4109C162.02 53.6579 162.701 52.5209 163.033 50.9909H166.809C166.299 53.5999 165.175 55.5629 163.436 56.8819Z" fill="white"/>
<path d="M173.374 35.119V38.806H173.462C175.052 35.989 177.57 34.579 181.016 34.579C182.546 34.579 183.819 34.791 184.84 35.207C185.858 35.628 186.683 36.214 187.312 36.964C187.942 37.71 188.383 38.602 188.639 39.638C188.893 40.672 189.02 41.818 189.02 43.078V58.367H185.2V42.628C185.2 41.187 184.779 40.051 183.94 39.212C183.102 38.372 181.946 37.95 180.478 37.95C179.309 37.95 178.296 38.133 177.443 38.491C176.588 38.85 175.875 39.361 175.307 40.02C174.736 40.68 174.309 41.453 174.024 42.336C173.74 43.22 173.598 44.188 173.598 45.235V58.367H169.776V35.119H173.374Z" fill="white"/>
<path d="M198.508 58.3674H194.237V26.2614H198.508V58.3674Z" fill="white"/>
<path d="M215.731 54.7684C216.208 54.7684 216.81 54.7324 217.527 54.6574C218.246 54.5804 219.014 54.4024 219.822 54.1164C220.632 53.8304 221.434 53.4194 222.228 52.8804C223.023 52.3414 223.737 51.6064 224.363 50.6764C224.997 49.7484 225.508 48.5854 225.916 47.1914C226.321 45.7984 226.521 44.1114 226.521 42.1324C226.521 40.2164 226.335 38.4984 225.961 36.9844C225.585 35.4724 224.971 34.1834 224.115 33.1184C223.261 32.0544 222.162 31.2444 220.812 30.6914C219.465 30.1344 217.798 29.8564 215.819 29.8564H208.626V54.7684H215.731ZM215.37 26.2614C220.314 26.2614 224.124 27.5194 226.792 30.0394C229.46 32.5554 230.795 36.3944 230.795 41.5474C230.795 44.2474 230.494 46.6364 229.893 48.7194C229.293 50.8024 228.366 52.5584 227.107 53.9814C225.845 55.4044 224.245 56.4944 222.297 57.2434C220.343 57.9914 218.04 58.3674 215.37 58.3674H204.353V26.2614H215.37Z" fill="white"/>
<path d="M232.514 29.6825C232.672 29.6825 232.823 29.6755 232.964 29.6665C233.108 29.6565 233.233 29.6265 233.344 29.5785C233.454 29.5305 233.541 29.4535 233.609 29.3555C233.672 29.2555 233.705 29.1165 233.705 28.9375C233.705 28.7865 233.675 28.6635 233.618 28.5735C233.562 28.4835 233.482 28.4145 233.391 28.3665C233.297 28.3185 233.189 28.2855 233.07 28.2695C232.946 28.2495 232.827 28.2425 232.711 28.2425H231.779V29.6825H232.514ZM232.824 27.6725C233.366 27.6725 233.761 27.7785 234.023 27.9945C234.285 28.2085 234.412 28.5315 234.412 28.9675C234.412 29.3755 234.295 29.6725 234.069 29.8625C233.84 30.0555 233.557 30.1655 233.219 30.2025L234.515 32.2015H233.756L232.525 30.2515H231.779V32.2015H231.075V27.6725H232.824ZM229.628 31.2425C229.79 31.6455 230.013 31.9975 230.303 32.2945C230.589 32.5925 230.926 32.8255 231.319 32.9935C231.709 33.1635 232.128 33.2455 232.586 33.2455C233.038 33.2455 233.454 33.1635 233.84 32.9935C234.23 32.8255 234.564 32.5925 234.851 32.2945C235.136 31.9975 235.361 31.6455 235.523 31.2425C235.688 30.8385 235.767 30.3985 235.767 29.9195C235.767 29.4565 235.688 29.0255 235.523 28.6245C235.361 28.2245 235.136 27.8755 234.851 27.5825C234.564 27.2915 234.23 27.0575 233.84 26.8905C233.454 26.7205 233.038 26.6355 232.586 26.6355C232.128 26.6355 231.709 26.7205 231.319 26.8905C230.926 27.0575 230.589 27.2915 230.303 27.5825C230.013 27.8755 229.79 28.2245 229.628 28.6245C229.465 29.0255 229.386 29.4565 229.386 29.9195C229.386 30.3985 229.465 30.8385 229.628 31.2425ZM228.991 28.3975C229.198 27.9285 229.479 27.5205 229.832 27.1745C230.189 26.8295 230.608 26.5575 231.079 26.3615C231.551 26.1635 232.056 26.0645 232.586 26.0645C233.118 26.0645 233.62 26.1635 234.087 26.3615C234.558 26.5575 234.972 26.8295 235.319 27.1745C235.677 27.5205 235.954 27.9285 236.163 28.3975C236.372 28.8665 236.474 29.3755 236.474 29.9195C236.474 30.4805 236.372 30.9975 236.163 31.4695C235.954 31.9435 235.677 32.3535 235.319 32.7035C234.972 33.0515 234.558 33.3235 234.087 33.5175C233.62 33.7085 233.118 33.8075 232.586 33.8075C232.056 33.8075 231.551 33.7085 231.079 33.5175C230.608 33.3235 230.189 33.0515 229.832 32.7035C229.479 32.3535 229.198 31.9435 228.991 31.4695C228.782 30.9975 228.679 30.4805 228.679 29.9195C228.679 29.3755 228.782 28.8665 228.991 28.3975Z" fill="white"/>
</svg>
